<svg width="954" height="529" viewBox="0 0 954 529" fill="none" xmlns="http://www.w3.org/2000/svg">
<g opacity="0.29827">
<path d="M1008.08 196.448L443.182 -323.858V-714.19L28.1096 -737C24.9043 -729.456 4.36709 -707.714 7.57176 -695.596C11.43 -681.102 30.8387 -685.735 36.4776 -676.409C43.0661 -665.42 31.7291 -620.749 28.3457 -607.86C21.8759 -583.445 7.09676 -563.665 2.82235 -539.25C-4.35982 -498.263 10.1824 -501.53 37.7242 -475.927C84.141 -432.742 46.9244 -387.952 58.6176 -337.223C68.1146 -295.878 109.605 -274.554 124.8 -233.211C136.553 -201.37 152.697 -193.233 177.746 -169.947C177.153 -184.084 164.51 -225.785 188.253 -222.102C211.817 -218.478 202.736 -183.669 207.247 -169.115C211.045 -156.997 237.933 -132.761 215.616 -121.593C208.196 -117.91 187.066 -132.582 178.577 -136.503C184.572 -117.791 180.774 -98.367 190.271 -80.4867C201.608 -59.162 213.835 -67.3588 228.853 -55.7754C244.344 -43.8355 242.683 -30.1137 235.797 -12.0554C228.615 6.77534 221.196 3.86477 232.592 26.5566C240.843 42.9512 254.85 63.7421 266.9 76.2164C273.904 83.4634 281.502 85.1267 288.506 94.3932C294.323 102.115 292.067 112.214 299.012 119.164C310.883 131.104 331.006 131.282 340.384 146.904C350.831 164.309 338.96 177.437 369.706 175.833C371.309 210.643 377.897 242.185 377.541 276.994C394.695 283.825 422.414 275.687 440.399 272.063C458.266 296.18 481.355 279.429 501.774 292.558C510.678 298.26 508.837 312.517 514.239 317.506C525.339 327.723 533.529 321.308 547.301 324.872C557.51 327.486 565.404 334.97 575.138 337.703C584.338 340.257 599.475 334.258 606.301 342.396C614.492 352.138 600.78 369.958 613.127 377.799C623.395 384.333 638.115 368.77 648.088 371.027C659.721 373.7 693.079 404.174 701.271 414.212C710.59 425.677 719.969 447.062 725.25 461.793C733.501 484.841 732.373 496.127 749.408 512.998C760.27 523.75 749.942 524.522 767.63 527.67C779.204 529.749 794.518 521.374 806.212 520.067C830.549 517.394 855.122 522.027 879.102 517.453C901.421 513.176 922.729 506.166 945.64 502.899C965.465 500.048 1000.37 502.246 1017.94 492.801C1036.99 482.643 1038.71 459.654 1011.17 463.932C1008.97 449.26 1018.77 429.003 1007.85 418.847C1023.04 398.056 1028.56 383.384 1030.93 357.959C1032 346.792 1032.48 334.436 1038 325.05C1043.4 315.783 1058.59 310.259 1061.56 302.299C1066.13 289.943 1058.83 284.419 1053.25 277.528C1049.69 273.073 1039.54 275.212 1036.63 271.291C1031.23 264.103 1036.57 256.678 1033.6 249.431C1024.94 228.462 1014.61 220.205 1008.08 196.444C1008.26 200.424 1008.44 204.463 1008.2 208.384" stroke="white" stroke-width="2" stroke-linecap="round" stroke-linejoin="round"/>
</g>
<path d="M729.114 116.939C720.546 140.321 740.614 148.526 756.675 163.807C761.434 168.336 761.888 175.817 756.879 180.342C746.107 190.074 705.264 175.917 707.854 188.745C710.53 201.994 745.061 220.531 746.618 221.799C760.284 232.932 764.735 261.174 757.208 276.658C751.852 287.676 716.342 283.962 705.172 280.293C632.024 256.266 664.985 259.131 582.817 251.67C576.527 251.099 569.935 250.806 563.894 252.65C557.671 254.549 557.869 262.339 559.957 266.55C566.876 280.506 597.849 304.178 589.514 322.523C586.956 328.152 580.963 331.707 578.264 337.27C576.151 341.627 576.385 346.772 575.445 351.523" stroke="white" stroke-width="2"/>
<path fill-rule="evenodd" clip-rule="evenodd" d="M573.5 359C577.09 359 580 356.09 580 352.5C580 348.91 577.09 346 573.5 346C569.91 346 567 348.91 567 352.5C567 356.09 569.91 359 573.5 359Z" fill="#4AF6CD"/>
<path fill-rule="evenodd" clip-rule="evenodd" d="M661 396C662.657 396 664 394.657 664 393C664 391.343 662.657 390 661 390C659.343 390 658 391.343 658 393C658 394.657 659.343 396 661 396Z" fill="#4AF6CD"/>
<path fill-rule="evenodd" clip-rule="evenodd" d="M725 504C726.657 504 728 502.657 728 501C728 499.343 726.657 498 725 498C723.343 498 722 499.343 722 501C722 502.657 723.343 504 725 504Z" fill="#4AF6CD"/>
<path fill-rule="evenodd" clip-rule="evenodd" d="M365 261C366.657 261 368 259.657 368 258C368 256.343 366.657 255 365 255C363.343 255 362 256.343 362 258C362 259.657 363.343 261 365 261Z" fill="#4AF6CD"/>
<path fill-rule="evenodd" clip-rule="evenodd" d="M729.5 124C733.09 124 736 121.09 736 117.5C736 113.91 733.09 111 729.5 111C725.91 111 723 113.91 723 117.5C723 121.09 725.91 124 729.5 124Z" fill="#4AF6CD"/>
<path d="M398.41 343.976L396.17 355H394.218L392.186 345.768L390.138 355H388.234L385.994 343.976H387.482L389.258 353.672L391.386 343.976H393.002L395.178 353.672L397.018 343.976H398.41ZM406.544 350.536C406.544 350.781 406.534 351.032 406.512 351.288H401.136C401.2 352.216 401.435 352.899 401.84 353.336C402.246 353.773 402.768 353.992 403.408 353.992C403.814 353.992 404.187 353.933 404.528 353.816C404.87 353.699 405.227 353.512 405.6 353.256L406.24 354.136C405.344 354.84 404.363 355.192 403.296 355.192C402.123 355.192 401.206 354.808 400.544 354.04C399.894 353.272 399.568 352.216 399.568 350.872C399.568 349.997 399.707 349.224 399.984 348.552C400.272 347.869 400.678 347.336 401.2 346.952C401.734 346.568 402.358 346.376 403.072 346.376C404.192 346.376 405.051 346.744 405.648 347.48C406.246 348.216 406.544 349.235 406.544 350.536ZM405.088 350.104C405.088 349.272 404.923 348.637 404.592 348.2C404.262 347.763 403.766 347.544 403.104 347.544C401.899 347.544 401.243 348.429 401.136 350.2H405.088V350.104ZM411.183 346.376C411.759 346.376 412.276 346.456 412.735 346.616C413.194 346.776 413.631 347.016 414.047 347.336L413.423 348.264C413.039 348.019 412.671 347.837 412.319 347.72C411.978 347.603 411.615 347.544 411.231 347.544C410.751 347.544 410.372 347.645 410.095 347.848C409.818 348.04 409.679 348.307 409.679 348.648C409.679 348.989 409.807 349.256 410.063 349.448C410.33 349.64 410.804 349.827 411.487 350.008C412.426 350.243 413.124 350.563 413.583 350.968C414.052 351.373 414.287 351.928 414.287 352.632C414.287 353.464 413.962 354.099 413.311 354.536C412.671 354.973 411.887 355.192 410.959 355.192C409.679 355.192 408.618 354.824 407.775 354.088L408.559 353.192C409.274 353.736 410.063 354.008 410.927 354.008C411.482 354.008 411.919 353.896 412.239 353.672C412.57 353.437 412.735 353.123 412.735 352.728C412.735 352.44 412.676 352.211 412.559 352.04C412.442 351.859 412.239 351.704 411.951 351.576C411.663 351.437 411.242 351.293 410.687 351.144C409.791 350.909 409.14 350.595 408.735 350.2C408.34 349.805 408.143 349.304 408.143 348.696C408.143 348.259 408.271 347.864 408.527 347.512C408.794 347.149 409.156 346.872 409.615 346.68C410.084 346.477 410.607 346.376 411.183 346.376ZM420.62 354.616C420.065 355 419.436 355.192 418.732 355.192C418.017 355.192 417.457 354.989 417.052 354.584C416.657 354.168 416.46 353.571 416.46 352.792V347.704H414.988V346.568H416.46V344.664L417.932 344.488V346.568H419.932L419.772 347.704H417.932V352.728C417.932 353.165 418.006 353.485 418.156 353.688C418.316 353.88 418.577 353.976 418.94 353.976C419.27 353.976 419.644 353.864 420.06 353.64L420.62 354.616ZM429.179 343.784C429.915 343.784 430.545 343.891 431.067 344.104C431.59 344.307 432.097 344.627 432.587 345.064L431.755 345.992C431.339 345.661 430.929 345.421 430.523 345.272C430.129 345.112 429.702 345.032 429.243 345.032C428.667 345.032 428.193 345.165 427.819 345.432C427.446 345.699 427.259 346.088 427.259 346.6C427.259 346.92 427.323 347.192 427.451 347.416C427.579 347.629 427.814 347.827 428.155 348.008C428.507 348.189 429.014 348.381 429.675 348.584C430.369 348.797 430.945 349.027 431.403 349.272C431.862 349.517 432.23 349.859 432.507 350.296C432.795 350.723 432.939 351.267 432.939 351.928C432.939 352.568 432.779 353.133 432.459 353.624C432.15 354.115 431.697 354.499 431.099 354.776C430.513 355.053 429.814 355.192 429.003 355.192C427.478 355.192 426.23 354.717 425.259 353.768L426.091 352.84C426.539 353.203 426.993 353.48 427.451 353.672C427.91 353.853 428.422 353.944 428.987 353.944C429.67 353.944 430.235 353.779 430.683 353.448C431.131 353.107 431.355 352.616 431.355 351.976C431.355 351.613 431.286 351.315 431.147 351.08C431.009 350.835 430.769 350.616 430.427 350.424C430.097 350.232 429.611 350.04 428.971 349.848C427.841 349.507 427.014 349.096 426.491 348.616C425.969 348.136 425.707 347.485 425.707 346.664C425.707 346.109 425.851 345.613 426.139 345.176C426.438 344.739 426.849 344.397 427.371 344.152C427.905 343.907 428.507 343.784 429.179 343.784ZM439.066 346.376C439.834 346.376 440.431 346.605 440.858 347.064C441.295 347.523 441.514 348.152 441.514 348.952V355H440.042V349.16C440.042 348.563 439.925 348.141 439.69 347.896C439.466 347.651 439.135 347.528 438.698 347.528C438.261 347.528 437.871 347.656 437.53 347.912C437.189 348.168 436.869 348.531 436.57 349V355H435.098V343.192L436.57 343.032V347.736C437.231 346.829 438.063 346.376 439.066 346.376ZM447.641 346.376C448.825 346.376 449.742 346.771 450.393 347.56C451.054 348.349 451.385 349.421 451.385 350.776C451.385 351.651 451.236 352.424 450.937 353.096C450.638 353.757 450.206 354.275 449.641 354.648C449.076 355.011 448.404 355.192 447.625 355.192C446.441 355.192 445.518 354.797 444.857 354.008C444.196 353.219 443.865 352.147 443.865 350.792C443.865 349.917 444.014 349.149 444.313 348.488C444.612 347.816 445.044 347.299 445.609 346.936C446.174 346.563 446.852 346.376 447.641 346.376ZM447.641 347.56C446.18 347.56 445.449 348.637 445.449 350.792C445.449 352.936 446.174 354.008 447.625 354.008C449.076 354.008 449.801 352.931 449.801 350.776C449.801 348.632 449.081 347.56 447.641 347.56ZM457.481 346.376C457.78 346.376 458.057 346.408 458.313 346.472L458.041 347.912C457.785 347.848 457.54 347.816 457.305 347.816C456.782 347.816 456.361 348.008 456.041 348.392C455.721 348.776 455.47 349.373 455.289 350.184V355H453.817V346.568H455.081L455.225 348.28C455.449 347.651 455.753 347.176 456.137 346.856C456.521 346.536 456.969 346.376 457.481 346.376ZM465.872 350.536C465.872 350.781 465.862 351.032 465.84 351.288H460.464C460.528 352.216 460.763 352.899 461.168 353.336C461.574 353.773 462.096 353.992 462.736 353.992C463.142 353.992 463.515 353.933 463.856 353.816C464.198 353.699 464.555 353.512 464.928 353.256L465.568 354.136C464.672 354.84 463.691 355.192 462.624 355.192C461.451 355.192 460.534 354.808 459.872 354.04C459.222 353.272 458.896 352.216 458.896 350.872C458.896 349.997 459.035 349.224 459.312 348.552C459.6 347.869 460.006 347.336 460.528 346.952C461.062 346.568 461.686 346.376 462.4 346.376C463.52 346.376 464.379 346.744 464.976 347.48C465.574 348.216 465.872 349.235 465.872 350.536ZM464.416 350.104C464.416 349.272 464.251 348.637 463.92 348.2C463.59 347.763 463.094 347.544 462.432 347.544C461.227 347.544 460.571 348.429 460.464 350.2H464.416V350.104ZM474.41 342.184V356.568H474.058V342.184H474.41ZM493.237 355H491.765L491.381 350.024C491.221 348.072 491.131 346.573 491.109 345.528L488.725 353.752H487.301L484.789 345.512C484.789 346.845 484.72 348.387 484.581 350.136L484.213 355H482.773L483.685 343.976H485.733L488.053 351.992L490.261 343.976H492.325L493.237 355ZM501.434 353.032C501.434 353.373 501.493 353.629 501.61 353.8C501.728 353.96 501.904 354.083 502.138 354.168L501.802 355.192C501.365 355.139 501.013 355.016 500.746 354.824C500.48 354.632 500.282 354.333 500.154 353.928C499.589 354.771 498.752 355.192 497.642 355.192C496.81 355.192 496.154 354.957 495.674 354.488C495.194 354.019 494.954 353.405 494.954 352.648C494.954 351.752 495.274 351.064 495.914 350.584C496.565 350.104 497.482 349.864 498.666 349.864H499.962V349.24C499.962 348.643 499.818 348.216 499.53 347.96C499.242 347.704 498.8 347.576 498.202 347.576C497.584 347.576 496.826 347.725 495.93 348.024L495.562 346.952C496.608 346.568 497.578 346.376 498.474 346.376C499.466 346.376 500.208 346.621 500.698 347.112C501.189 347.592 501.434 348.28 501.434 349.176V353.032ZM497.978 354.088C498.821 354.088 499.482 353.651 499.962 352.776V350.84H498.858C497.301 350.84 496.522 351.416 496.522 352.568C496.522 353.069 496.645 353.448 496.89 353.704C497.136 353.96 497.498 354.088 497.978 354.088ZM505.981 355.192C505.437 355.192 505.005 355.032 504.685 354.712C504.376 354.381 504.221 353.923 504.221 353.336V343.176L505.693 343V353.304C505.693 353.539 505.731 353.709 505.805 353.816C505.891 353.923 506.029 353.976 506.221 353.976C506.424 353.976 506.605 353.944 506.765 353.88L507.149 354.904C506.797 355.096 506.408 355.192 505.981 355.192ZM510.461 346.568V355H508.989V346.568H510.461ZM509.709 342.52C510.018 342.52 510.269 342.616 510.461 342.808C510.653 343 510.749 343.24 510.749 343.528C510.749 343.816 510.653 344.056 510.461 344.248C510.269 344.429 510.018 344.52 509.709 344.52C509.41 344.52 509.165 344.429 508.973 344.248C508.781 344.056 508.685 343.816 508.685 343.528C508.685 343.24 508.781 343 508.973 342.808C509.165 342.616 509.41 342.52 509.709 342.52ZM517.36 346.376C518.32 346.376 519.083 346.765 519.648 347.544C520.214 348.312 520.496 349.389 520.496 350.776C520.496 351.651 520.363 352.424 520.096 353.096C519.83 353.757 519.446 354.275 518.944 354.648C518.443 355.011 517.856 355.192 517.184 355.192C516.299 355.192 515.552 354.819 514.944 354.072L514.8 355H513.504V343.176L514.976 343V347.624C515.584 346.792 516.379 346.376 517.36 346.376ZM516.832 354.024C517.483 354.024 517.99 353.763 518.352 353.24C518.726 352.707 518.912 351.885 518.912 350.776C518.912 349.635 518.742 348.813 518.4 348.312C518.059 347.8 517.574 347.544 516.944 347.544C516.198 347.544 515.542 347.981 514.976 348.856V352.888C515.2 353.24 515.472 353.517 515.792 353.72C516.123 353.923 516.47 354.024 516.832 354.024ZM529.276 355H528.012L527.9 353.688C527.58 354.211 527.212 354.595 526.796 354.84C526.38 355.075 525.874 355.192 525.276 355.192C524.54 355.192 523.964 354.968 523.548 354.52C523.132 354.072 522.924 353.437 522.924 352.616V346.568H524.396V352.456C524.396 353.032 524.498 353.443 524.7 353.688C524.903 353.923 525.234 354.04 525.692 354.04C526.514 354.04 527.218 353.555 527.804 352.584V346.568H529.276V355ZM532.701 352.968C533.021 352.968 533.288 353.075 533.501 353.288C533.714 353.501 533.821 353.763 533.821 354.072C533.821 354.403 533.725 354.781 533.533 355.208L532.461 357.656H531.405L532.045 355C531.906 354.893 531.794 354.76 531.709 354.6C531.634 354.44 531.597 354.264 531.597 354.072C531.597 353.763 531.704 353.501 531.917 353.288C532.13 353.075 532.392 352.968 532.701 352.968ZM544.331 343.784C544.992 343.784 545.547 343.869 545.995 344.04C546.454 344.211 546.918 344.488 547.387 344.872L546.555 345.848C545.883 345.304 545.174 345.032 544.427 345.032C543.51 345.032 542.768 345.384 542.203 346.088C541.648 346.792 541.371 347.923 541.371 349.48C541.371 350.995 541.648 352.115 542.203 352.84C542.758 353.555 543.494 353.912 544.411 353.912C544.88 353.912 545.291 353.832 545.643 353.672C545.995 353.512 546.368 353.288 546.763 353L547.515 353.96C547.174 354.312 546.736 354.605 546.203 354.84C545.67 355.075 545.056 355.192 544.363 355.192C543.467 355.192 542.667 354.973 541.963 354.536C541.27 354.088 540.726 353.437 540.331 352.584C539.947 351.72 539.755 350.685 539.755 349.48C539.755 348.275 539.958 347.245 540.363 346.392C540.768 345.528 541.318 344.877 542.011 344.44C542.704 344.003 543.478 343.784 544.331 343.784ZM555.3 355L554.468 352.232H550.292L549.46 355H547.924L551.46 343.976H553.38L556.9 355H555.3ZM550.66 351H554.1L552.388 345.24L550.66 351Z" fill="white"/>
<path d="M598.378 108.784C599.039 108.784 599.594 108.869 600.042 109.04C600.501 109.211 600.965 109.488 601.434 109.872L600.602 110.848C599.93 110.304 599.221 110.032 598.474 110.032C597.557 110.032 596.815 110.384 596.25 111.088C595.695 111.792 595.418 112.923 595.418 114.48C595.418 115.995 595.695 117.115 596.25 117.84C596.805 118.555 597.541 118.912 598.458 118.912C598.927 118.912 599.338 118.832 599.69 118.672C600.042 118.512 600.415 118.288 600.81 118L601.562 118.96C601.221 119.312 600.783 119.605 600.25 119.84C599.717 120.075 599.103 120.192 598.41 120.192C597.514 120.192 596.714 119.973 596.01 119.536C595.317 119.088 594.773 118.437 594.378 117.584C593.994 116.72 593.802 115.685 593.802 114.48C593.802 113.275 594.005 112.245 594.41 111.392C594.815 110.528 595.365 109.877 596.058 109.44C596.751 109.003 597.525 108.784 598.378 108.784ZM609.401 120H608.137L608.025 118.688C607.705 119.211 607.337 119.595 606.921 119.84C606.505 120.075 605.999 120.192 605.401 120.192C604.665 120.192 604.089 119.968 603.673 119.52C603.257 119.072 603.049 118.437 603.049 117.616V111.568H604.521V117.456C604.521 118.032 604.623 118.443 604.825 118.688C605.028 118.923 605.359 119.04 605.817 119.04C606.639 119.04 607.343 118.555 607.929 117.584V111.568H609.401V120ZM616.106 111.376C616.405 111.376 616.682 111.408 616.938 111.472L616.666 112.912C616.41 112.848 616.165 112.816 615.93 112.816C615.407 112.816 614.986 113.008 614.666 113.392C614.346 113.776 614.095 114.373 613.914 115.184V120H612.442V111.568H613.706L613.85 113.28C614.074 112.651 614.378 112.176 614.762 111.856C615.146 111.536 615.594 111.376 616.106 111.376ZM622.278 111.376C622.576 111.376 622.854 111.408 623.11 111.472L622.838 112.912C622.582 112.848 622.336 112.816 622.102 112.816C621.579 112.816 621.158 113.008 620.838 113.392C620.518 113.776 620.267 114.373 620.086 115.184V120H618.614V111.568H619.878L620.022 113.28C620.246 112.651 620.55 112.176 620.934 111.856C621.318 111.536 621.766 111.376 622.278 111.376ZM630.669 115.536C630.669 115.781 630.659 116.032 630.637 116.288H625.261C625.325 117.216 625.56 117.899 625.965 118.336C626.371 118.773 626.893 118.992 627.533 118.992C627.939 118.992 628.312 118.933 628.653 118.816C628.995 118.699 629.352 118.512 629.725 118.256L630.365 119.136C629.469 119.84 628.488 120.192 627.421 120.192C626.248 120.192 625.331 119.808 624.669 119.04C624.019 118.272 623.693 117.216 623.693 115.872C623.693 114.997 623.832 114.224 624.109 113.552C624.397 112.869 624.803 112.336 625.325 111.952C625.859 111.568 626.483 111.376 627.197 111.376C628.317 111.376 629.176 111.744 629.773 112.48C630.371 113.216 630.669 114.235 630.669 115.536ZM629.213 115.104C629.213 114.272 629.048 113.637 628.717 113.2C628.387 112.763 627.891 112.544 627.229 112.544C626.024 112.544 625.368 113.429 625.261 115.2H629.213V115.104ZM636.988 111.376C637.756 111.376 638.353 111.605 638.78 112.064C639.217 112.523 639.436 113.152 639.436 113.952V120H637.964V114.16C637.964 113.563 637.852 113.141 637.628 112.896C637.404 112.651 637.073 112.528 636.636 112.528C636.188 112.528 635.793 112.656 635.452 112.912C635.111 113.168 634.791 113.536 634.492 114.016V120H633.02V111.568H634.284L634.412 112.816C634.711 112.368 635.079 112.016 635.516 111.76C635.964 111.504 636.455 111.376 636.988 111.376ZM646.651 119.616C646.096 120 645.467 120.192 644.763 120.192C644.048 120.192 643.488 119.989 643.083 119.584C642.688 119.168 642.491 118.571 642.491 117.792V112.704H641.019V111.568H642.491V109.664L643.963 109.488V111.568H645.963L645.803 112.704H643.963V117.728C643.963 118.165 644.038 118.485 644.187 118.688C644.347 118.88 644.608 118.976 644.971 118.976C645.302 118.976 645.675 118.864 646.091 118.64L646.651 119.616ZM654.011 108.976V118.672H658.539L658.363 120H652.491V108.976H654.011ZM663.141 111.376C664.325 111.376 665.242 111.771 665.893 112.56C666.554 113.349 666.885 114.421 666.885 115.776C666.885 116.651 666.736 117.424 666.437 118.096C666.138 118.757 665.706 119.275 665.141 119.648C664.576 120.011 663.904 120.192 663.125 120.192C661.941 120.192 661.018 119.797 660.357 119.008C659.696 118.219 659.365 117.147 659.365 115.792C659.365 114.917 659.514 114.149 659.813 113.488C660.112 112.816 660.544 112.299 661.109 111.936C661.674 111.563 662.352 111.376 663.141 111.376ZM663.141 112.56C661.68 112.56 660.949 113.637 660.949 115.792C660.949 117.936 661.674 119.008 663.125 119.008C664.576 119.008 665.301 117.931 665.301 115.776C665.301 113.632 664.581 112.56 663.141 112.56ZM672.389 111.376C672.89 111.376 673.349 111.451 673.765 111.6C674.181 111.739 674.581 111.968 674.965 112.288L674.261 113.216C673.962 113.003 673.669 112.848 673.381 112.752C673.104 112.645 672.794 112.592 672.453 112.592C671.77 112.592 671.237 112.864 670.853 113.408C670.48 113.952 670.293 114.757 670.293 115.824C670.293 116.891 670.48 117.68 670.853 118.192C671.226 118.693 671.76 118.944 672.453 118.944C672.784 118.944 673.088 118.896 673.365 118.8C673.642 118.693 673.952 118.528 674.293 118.304L674.965 119.264C674.197 119.883 673.338 120.192 672.389 120.192C671.248 120.192 670.346 119.808 669.685 119.04C669.034 118.272 668.709 117.211 668.709 115.856C668.709 114.96 668.858 114.176 669.157 113.504C669.456 112.832 669.877 112.309 670.421 111.936C670.976 111.563 671.632 111.376 672.389 111.376ZM682.481 118.032C682.481 118.373 682.54 118.629 682.657 118.8C682.775 118.96 682.951 119.083 683.185 119.168L682.849 120.192C682.412 120.139 682.06 120.016 681.793 119.824C681.527 119.632 681.329 119.333 681.201 118.928C680.636 119.771 679.799 120.192 678.689 120.192C677.857 120.192 677.201 119.957 676.721 119.488C676.241 119.019 676.001 118.405 676.001 117.648C676.001 116.752 676.321 116.064 676.961 115.584C677.612 115.104 678.529 114.864 679.713 114.864H681.009V114.24C681.009 113.643 680.865 113.216 680.577 112.96C680.289 112.704 679.847 112.576 679.249 112.576C678.631 112.576 677.873 112.725 676.977 113.024L676.609 111.952C677.655 111.568 678.625 111.376 679.521 111.376C680.513 111.376 681.255 111.621 681.745 112.112C682.236 112.592 682.481 113.28 682.481 114.176V118.032ZM679.025 119.088C679.868 119.088 680.529 118.651 681.009 117.776V115.84H679.905C678.348 115.84 677.569 116.416 677.569 117.568C677.569 118.069 677.692 118.448 677.937 118.704C678.183 118.96 678.545 119.088 679.025 119.088ZM689.76 119.616C689.206 120 688.576 120.192 687.872 120.192C687.158 120.192 686.598 119.989 686.192 119.584C685.798 119.168 685.6 118.571 685.6 117.792V112.704H684.128V111.568H685.6V109.664L687.072 109.488V111.568H689.072L688.912 112.704H687.072V117.728C687.072 118.165 687.147 118.485 687.296 118.688C687.456 118.88 687.718 118.976 688.08 118.976C688.411 118.976 688.784 118.864 689.2 118.64L689.76 119.616ZM692.758 111.568V120H691.286V111.568H692.758ZM692.006 107.52C692.315 107.52 692.566 107.616 692.758 107.808C692.95 108 693.046 108.24 693.046 108.528C693.046 108.816 692.95 109.056 692.758 109.248C692.566 109.429 692.315 109.52 692.006 109.52C691.707 109.52 691.462 109.429 691.27 109.248C691.078 109.056 690.982 108.816 690.982 108.528C690.982 108.24 691.078 108 691.27 107.808C691.462 107.616 691.707 107.52 692.006 107.52ZM698.969 111.376C700.153 111.376 701.071 111.771 701.721 112.56C702.383 113.349 702.713 114.421 702.713 115.776C702.713 116.651 702.564 117.424 702.265 118.096C701.967 118.757 701.535 119.275 700.969 119.648C700.404 120.011 699.732 120.192 698.953 120.192C697.769 120.192 696.847 119.797 696.185 119.008C695.524 118.219 695.193 117.147 695.193 115.792C695.193 114.917 695.343 114.149 695.641 113.488C695.94 112.816 696.372 112.299 696.937 111.936C697.503 111.563 698.18 111.376 698.969 111.376ZM698.969 112.56C697.508 112.56 696.777 113.637 696.777 115.792C696.777 117.936 697.503 119.008 698.953 119.008C700.404 119.008 701.129 117.931 701.129 115.776C701.129 113.632 700.409 112.56 698.969 112.56ZM709.113 111.376C709.881 111.376 710.478 111.605 710.905 112.064C711.342 112.523 711.561 113.152 711.561 113.952V120H710.089V114.16C710.089 113.563 709.977 113.141 709.753 112.896C709.529 112.651 709.198 112.528 708.761 112.528C708.313 112.528 707.918 112.656 707.577 112.912C707.236 113.168 706.916 113.536 706.617 114.016V120H705.145V111.568H706.409L706.537 112.816C706.836 112.368 707.204 112.016 707.641 111.76C708.089 111.504 708.58 111.376 709.113 111.376Z" fill="white"/>
</svg>
