<svg width="31" height="32" viewBox="0 0 31 32" fill="none" xmlns="http://www.w3.org/2000/svg">
<path d="M1.06262 1.35273C2.90129 0.650315 6.33072 0.522228 5.33908 5.62918C4.34743 10.7361 3.02525 16.4339 2.48811 18.6445C1.90965 20.3592 1.78156 23.7886 5.89687 23.7886C10.0122 23.7886 21.7425 23.7886 27.0932 23.7886M8.12807 4.69953H12.7144M5.33908 19.4502C6.59319 19.3354 8.1078 19.1974 9.73949 19.0495M6.88852 11.579L28.7572 10.8973M28.7572 10.8973C29.1529 9.10477 29.5102 7.42762 29.6343 6.68281C29.8822 5.19535 28.4154 4.74085 27.651 4.69953H24.986M28.7572 10.8973C28.3625 12.6846 27.9295 14.5867 27.651 15.7935C27.5271 16.3926 26.9817 17.6033 25.7917 17.6528C25.4216 17.6683 23.9153 17.792 21.8251 17.9725M24.986 4.69953L21.8251 17.9725M24.986 4.69953H18.7882M21.8251 17.9725C20.1443 18.1177 18.086 18.2996 15.9372 18.4915M18.7882 4.69953L15.9372 18.4915M18.7882 4.69953H12.7144M15.9372 18.4915C13.8697 18.6762 11.7185 18.8701 9.73949 19.0495M12.7144 4.69953L9.73949 19.0495" stroke="white"/>
<circle cx="5.71095" cy="28.8708" r="2.47492" stroke="white"/>
<circle cx="21.4533" cy="28.8708" r="2.47492" stroke="white"/>
<path d="M6 26V27" stroke="black"/>
<path d="M19 28V29" stroke="black"/>
</svg>
